<svg viewBox="0 0 40 40" fill="none" xmlns="http://www.w3.org/2000/svg">
  <!-- SecureWave Logo - Lavender Brand Palette -->
  <!-- Modern shield with wave signal -->

  <defs>
    <linearGradient id="logoGradient" x1="0%" y1="0%" x2="100%" y2="100%">
      <stop offset="0%" stop-color="#A294F9"/>
      <stop offset="100%" stop-color="#CDC1FF"/>
    </linearGradient>
  </defs>

  <!-- Shield shape -->
  <path d="M20 3C20 3 6 8 6 16C6 24 6 28 20 37C34 28 34 24 34 16C34 8 20 3 20 3Z"
        fill="url(#logoGradient)"/>

  <!-- Signal waves -->
  <path d="M14 20C14 20 16 16 20 16C24 16 26 20 26 20"
        stroke="white"
        stroke-width="2.5"
        stroke-linecap="round"
        fill="none"/>
  <path d="M11 20C11 20 14 13 20 13C26 13 29 20 29 20"
        stroke="white"
        stroke-width="2"
        stroke-linecap="round"
        fill="none"
        opacity="0.7"/>
  <path d="M8 20C8 20 12 10 20 10C28 10 32 20 32 20"
        stroke="white"
        stroke-width="1.5"
        stroke-linecap="round"
        fill="none"
        opacity="0.4"/>

  <!-- Center dot -->
  <circle cx="20" cy="23" r="3" fill="white"/>
</svg>
