<svg viewBox="0 0 64 64" fill="none" xmlns="http://www.w3.org/2000/svg">
  <!-- SecureWave Logo Mark - Lavender Brand Palette -->

  <defs>
    <linearGradient id="markGradient" x1="0%" y1="0%" x2="100%" y2="100%">
      <stop offset="0%" stop-color="#A294F9"/>
      <stop offset="100%" stop-color="#CDC1FF"/>
    </linearGradient>
  </defs>

  <!-- Background circle -->
  <circle cx="32" cy="32" r="30" fill="#F5EFFF"/>

  <!-- Shield shape -->
  <path d="M32 10C32 10 14 16 14 26C14 36 14 41 32 52C50 41 50 36 50 26C50 16 32 10 32 10Z"
        fill="url(#markGradient)"/>

  <!-- Signal waves -->
  <path d="M24 32C24 32 26.5 27 32 27C37.5 27 40 32 40 32"
        stroke="white"
        stroke-width="3"
        stroke-linecap="round"
        fill="none"/>
  <path d="M20 32C20 32 23.5 24 32 24C40.5 24 44 32 44 32"
        stroke="white"
        stroke-width="2.5"
        stroke-linecap="round"
        fill="none"
        opacity="0.6"/>
  <path d="M16 32C16 32 20.5 21 32 21C43.5 21 48 32 48 32"
        stroke="white"
        stroke-width="2"
        stroke-linecap="round"
        fill="none"
        opacity="0.3"/>

  <!-- Center dot -->
  <circle cx="32" cy="37" r="4" fill="white"/>
</svg>
