<svg width="64" height="64" viewBox="0 0 64 64" fill="none" xmlns="http://www.w3.org/2000/svg">
  <!-- AI Neural Network -->
  <!-- Input layer -->
  <circle cx="12" cy="20" r="4" fill="#5eead4"/>
  <circle cx="12" cy="32" r="4" fill="#5eead4"/>
  <circle cx="12" cy="44" r="4" fill="#5eead4"/>

  <!-- Hidden layer -->
  <circle cx="32" cy="14" r="4" fill="#2dd4bf"/>
  <circle cx="32" cy="28" r="4" fill="#2dd4bf"/>
  <circle cx="32" cy="42" r="4" fill="#2dd4bf"/>
  <circle cx="32" cy="56" r="4" fill="#2dd4bf"/>

  <!-- Output layer -->
  <circle cx="52" cy="26" r="4" fill="#14b8a6"/>
  <circle cx="52" cy="38" r="4" fill="#14b8a6"/>

  <!-- Connections with varying opacity for weight visualization -->
  <line x1="16" y1="20" x2="28" y2="14" stroke="#2dd4bf" stroke-width="1.5" opacity="0.8"/>
  <line x1="16" y1="20" x2="28" y2="28" stroke="#2dd4bf" stroke-width="1.5" opacity="0.6"/>
  <line x1="16" y1="32" x2="28" y2="28" stroke="#2dd4bf" stroke-width="1.5" opacity="0.9"/>
  <line x1="16" y1="32" x2="28" y2="42" stroke="#2dd4bf" stroke-width="1.5" opacity="0.7"/>
  <line x1="16" y1="44" x2="28" y2="42" stroke="#2dd4bf" stroke-width="1.5" opacity="0.8"/>
  <line x1="16" y1="44" x2="28" y2="56" stroke="#2dd4bf" stroke-width="1.5" opacity="0.6"/>

  <line x1="36" y1="14" x2="48" y2="26" stroke="#14b8a6" stroke-width="1.5" opacity="0.7"/>
  <line x1="36" y1="28" x2="48" y2="26" stroke="#14b8a6" stroke-width="1.5" opacity="0.9"/>
  <line x1="36" y1="28" x2="48" y2="38" stroke="#14b8a6" stroke-width="1.5" opacity="0.8"/>
  <line x1="36" y1="42" x2="48" y2="38" stroke="#14b8a6" stroke-width="1.5" opacity="0.9"/>
  <line x1="36" y1="56" x2="48" y2="38" stroke="#14b8a6" stroke-width="1.5" opacity="0.6"/>
</svg>
