<svg width="64" height="64" viewBox="0 0 64 64" fill="none" xmlns="http://www.w3.org/2000/svg">
  <!-- DNS - Domain Name System -->
  <!-- Central server -->
  <rect x="24" y="26" width="16" height="20" rx="2" fill="#14b8a6"/>
  <line x1="26" y1="30" x2="38" y2="30" stroke="#5eead4" stroke-width="1"/>
  <line x1="26" y1="34" x2="38" y2="34" stroke="#5eead4" stroke-width="1"/>
  <line x1="26" y1="38" x2="38" y2="38" stroke="#5eead4" stroke-width="1"/>
  <line x1="26" y1="42" x2="38" y2="42" stroke="#5eead4" stroke-width="1"/>

  <!-- DNS query arrows -->
  <path d="M 8 16 L 20 22 M 20 22 L 18 20 M 20 22 L 18 24" stroke="#2dd4bf" stroke-width="2" fill="none"/>
  <path d="M 56 16 L 44 22 M 44 22 L 46 20 M 44 22 L 46 24" stroke="#2dd4bf" stroke-width="2" fill="none"/>

  <!-- DNS response arrows -->
  <path d="M 24 50 L 12 56 M 12 56 L 14 54 M 12 56 L 14 58" stroke="#5eead4" stroke-width="2" fill="none"/>
  <path d="M 40 50 L 52 56 M 52 56 L 50 54 M 52 56 L 50 58" stroke="#5eead4" stroke-width="2" fill="none"/>

  <!-- Domain symbols -->
  <text x="6" y="14" font-family="monospace" font-size="10" fill="#2dd4bf">abc</text>
  <text x="48" y="14" font-family="monospace" font-size="10" fill="#2dd4bf">xyz</text>
  <text x="6" y="62" font-family="monospace" font-size="8" fill="#5eead4">1.2.3</text>
  <text x="48" y="62" font-family="monospace" font-size="8" fill="#5eead4">4.5.6</text>
</svg>
