<svg width="64" height="64" viewBox="0 0 64 64" fill="none" xmlns="http://www.w3.org/2000/svg">
  <!-- Encryption - Lock with Shield -->
  <!-- Shield background -->
  <path d="M 32 8 L 48 16 L 48 32 Q 48 48 32 56 Q 16 48 16 32 L 16 16 Z" fill="#5eead4" opacity="0.3"/>
  <path d="M 32 8 L 48 16 L 48 32 Q 48 48 32 56 Q 16 48 16 32 L 16 16 Z" stroke="#2dd4bf" stroke-width="2" fill="none"/>

  <!-- Lock body -->
  <rect x="26" y="32" width="12" height="14" rx="2" fill="#14b8a6"/>

  <!-- Lock shackle -->
  <path d="M 28 32 L 28 26 Q 28 22 32 22 Q 36 22 36 26 L 36 32" stroke="#14b8a6" stroke-width="3" fill="none" stroke-linecap="round"/>

  <!-- Keyhole -->
  <circle cx="32" cy="38" r="2" fill="#5eead4"/>
  <rect x="31" y="38" width="2" height="4" fill="#5eead4"/>
</svg>
