<svg width="140" height="140" viewBox="0 0 140 140" fill="none" xmlns="http://www.w3.org/2000/svg" role="img" aria-labelledby="sw-title sw-desc">
  <title id="sw-title">SecureWave</title>
  <desc id="sw-desc">SecureWave shield logo — neon purple on dark plum.</desc>
  <defs>
    <linearGradient id="sw-wave-main" x1="42" y1="64" x2="102" y2="81" gradientUnits="userSpaceOnUse">
      <stop offset="0" stop-color="#7a5cff"/>
      <stop offset="1" stop-color="#b794ff"/>
    </linearGradient>
    <linearGradient id="sw-wave-accent" x1="47" y1="79" x2="95" y2="92" gradientUnits="userSpaceOnUse">
      <stop offset="0" stop-color="#9a72ff"/>
      <stop offset="1" stop-color="#9a72ff" stop-opacity="0.6"/>
    </linearGradient>
    <radialGradient id="sw-ambient" cx="0" cy="0" r="1" gradientUnits="userSpaceOnUse" gradientTransform="translate(70 72) rotate(90) scale(48)">
      <stop offset="0" stop-color="#7a5cff" stop-opacity="0.12"/>
      <stop offset="1" stop-color="#7a5cff" stop-opacity="0"/>
    </radialGradient>
  </defs>
  <circle cx="70" cy="72" r="42" fill="url(#sw-ambient)"/>
  <path d="M70 12C56 21 42 28 28 31v33c0 18 6 34 16 47 7 9 16 16 26 22 10-6 19-13 26-22 10-13 16-29 16-47V31c-14-3-28-10-42-19z" fill="#0e0818"/>
  <path d="M70 18C58 26 45 31 34 34v30c0 16 5 30 14 42 6 7 13 13 22 19 9-6 16-12 22-19 9-12 14-26 14-42V34c-11-3-24-8-36-16z" fill="none" stroke="#7a5cff" stroke-width="1.8"/>
  <circle cx="70" cy="68" r="29" fill="#1e1535"/>
  <circle cx="70" cy="68" r="29" fill="none" stroke="#7a5cff" stroke-opacity="0.35" stroke-width="1.1"/>
  <path d="M44 69c8-7 17-10 28-9 10 1 18 4 26 9" stroke="url(#sw-wave-main)" stroke-width="6" stroke-linecap="round"/>
  <path d="M46 81c7-6 15-8 24-7 8 1 15 3 22 7" stroke="url(#sw-wave-accent)" stroke-width="5" stroke-linecap="round"/>
  <path d="M52 92c5-4 11-5 17-5 6 0 11 2 16 5" stroke="#7a5cff" stroke-opacity="0.35" stroke-width="3" stroke-linecap="round"/>
</svg>
