<svg xmlns="http://www.w3.org/2000/svg" viewBox="0 0 200 200" fill="none">
  <defs>
    <linearGradient id="bgGrad" x1="0%" y1="0%" x2="100%" y2="100%">
      <stop offset="0%" style="stop-color:#0b1120;stop-opacity:1" />
      <stop offset="100%" style="stop-color:#132036;stop-opacity:1" />
    </linearGradient>
    <linearGradient id="primaryGrad" x1="0%" y1="0%" x2="100%" y2="100%">
      <stop offset="0%" style="stop-color:#0ea5e9;stop-opacity:1" />
      <stop offset="50%" style="stop-color:#14b8a6;stop-opacity:1" />
      <stop offset="100%" style="stop-color:#f59e0b;stop-opacity:1" />
    </linearGradient>
    <linearGradient id="shieldGrad" x1="50%" y1="0%" x2="50%" y2="100%">
      <stop offset="0%" style="stop-color:#0f879f;stop-opacity:1" />
      <stop offset="100%" style="stop-color:#0d5564;stop-opacity:1" />
    </linearGradient>
  </defs>
  <circle cx="100" cy="100" r="92" fill="url(#bgGrad)" stroke="rgba(255,255,255,0.08)" stroke-width="2"/>
  <g transform="translate(100, 100)">
    <path d="M 0 -70 L 35 -55 C 45 -50, 50 -40, 50 -25 L 50 30 C 50 45, 40 58, 25 65 L 0 75 L -25 65 C -40 58, -50 45, -50 30 L -50 -25 C -50 -40, -45 -50, -35 -55 Z"
          fill="url(#shieldGrad)"/>
    <g transform="translate(0, -5)">
      <path d="M -18 -12 Q 0 -24, 18 -12" fill="none" stroke="url(#primaryGrad)" stroke-width="4.5" stroke-linecap="round"/>
      <path d="M -30 0 Q 0 -18, 30 0" fill="none" stroke="url(#primaryGrad)" stroke-width="4" stroke-linecap="round" opacity="0.85"/>
      <path d="M -42 12 Q 0 -12, 42 12" fill="none" stroke="url(#primaryGrad)" stroke-width="3.5" stroke-linecap="round" opacity="0.7"/>
    </g>
    <g transform="translate(0, 26)">
      <rect x="-14" y="5" width="28" height="22" rx="4" fill="url(#primaryGrad)"/>
      <path d="M -9 5 L -9 0 C -9 -7, -4 -12, 0 -12 C 4 -12, 9 -7, 9 0 L 9 5" fill="none" stroke="url(#primaryGrad)" stroke-width="4" stroke-linecap="round"/>
      <circle cx="0" cy="14" r="3.4" fill="rgba(255,255,255,0.92)"/>
      <rect x="-1.6" y="16" width="3.2" height="7" rx="1.6" fill="rgba(255,255,255,0.92)"/>
    </g>
  </g>
</svg>
