<svg xmlns="http://www.w3.org/2000/svg" viewBox="0 0 200 200" fill="none">
  <defs>
    <linearGradient id="primaryGrad" x1="0%" y1="0%" x2="100%" y2="100%">
      <stop offset="0%" style="stop-color:#4f46e5;stop-opacity:1" />
      <stop offset="50%" style="stop-color:#7c3aed;stop-opacity:1" />
      <stop offset="100%" style="stop-color:#38bdf8;stop-opacity:1" />
    </linearGradient>
    <linearGradient id="shieldGrad" x1="50%" y1="0%" x2="50%" y2="100%">
      <stop offset="0%" style="stop-color:#6366f1;stop-opacity:1" />
      <stop offset="100%" style="stop-color:#4338ca;stop-opacity:1" />
    </linearGradient>
  </defs>
  <g transform="translate(100, 100)">
    <path d="M 0 -70 L 35 -55 C 45 -50, 50 -40, 50 -25 L 50 30 C 50 45, 40 58, 25 65 L 0 75 L -25 65 C -40 58, -50 45, -50 30 L -50 -25 C -50 -40, -45 -50, -35 -55 Z"
          fill="url(#shieldGrad)"/>
    <g transform="translate(0, -5)">
      <path d="M -15 -10 Q 0 -20, 15 -10" fill="none" stroke="url(#primaryGrad)" stroke-width="4" stroke-linecap="round"/>
      <path d="M -25 0 Q 0 -15, 25 0" fill="none" stroke="url(#primaryGrad)" stroke-width="3.5" stroke-linecap="round" opacity="0.85"/>
      <path d="M -35 10 Q 0 -10, 35 10" fill="none" stroke="url(#primaryGrad)" stroke-width="3" stroke-linecap="round" opacity="0.7"/>
    </g>
    <g transform="translate(0, 25)">
      <rect x="-12" y="5" width="24" height="20" rx="3" fill="url(#primaryGrad)"/>
      <path d="M -8 5 L -8 0 C -8 -6, -4 -10, 0 -10 C 4 -10, 8 -6, 8 0 L 8 5" fill="none" stroke="url(#primaryGrad)" stroke-width="3.5" stroke-linecap="round"/>
      <circle cx="0" cy="13" r="3" fill="rgba(255,255,255,0.92)"/>
      <rect x="-1.5" y="15" width="3" height="6" rx="1.5" fill="rgba(255,255,255,0.92)"/>
    </g>
  </g>
</svg>
