<svg width="64" height="64" viewBox="0 0 64 64" fill="none" xmlns="http://www.w3.org/2000/svg">
  <!-- Cloud Server Infrastructure -->
  <!-- Cloud shape -->
  <path d="M 16 36 Q 16 28 22 26 Q 24 22 28 22 Q 32 20 36 22 Q 42 22 44 28 Q 50 28 52 34 Q 52 40 46 42 L 18 42 Q 14 40 14 36 Q 14 34 16 34" fill="#5eead4" opacity="0.4"/>
  <path d="M 16 36 Q 16 28 22 26 Q 24 22 28 22 Q 32 20 36 22 Q 42 22 44 28 Q 50 28 52 34 Q 52 40 46 42 L 18 42 Q 14 40 14 36 Q 14 34 16 34" stroke="#2dd4bf" stroke-width="2" fill="none"/>

  <!-- Server racks inside cloud -->
  <rect x="22" y="30" width="8" height="6" rx="1" fill="#14b8a6"/>
  <rect x="34" y="30" width="8" height="6" rx="1" fill="#14b8a6"/>
  <circle cx="24" cy="33" r="1" fill="#5eead4"/>
  <circle cx="36" cy="33" r="1" fill="#5eead4"/>

  <!-- Network connections -->
  <line x1="32" y1="42" x2="32" y2="52" stroke="#2dd4bf" stroke-width="2"/>
  <line x1="20" y1="48" x2="32" y2="48" stroke="#14b8a6" stroke-width="2"/>
  <line x1="44" y1="48" x2="32" y2="48" stroke="#14b8a6" stroke-width="2"/>

  <!-- Endpoint devices -->
  <circle cx="20" cy="48" r="4" fill="#2dd4bf"/>
  <circle cx="44" cy="48" r="4" fill="#2dd4bf"/>
  <circle cx="32" cy="56" r="4" fill="#2dd4bf"/>
</svg>
