<svg width="64" height="64" viewBox="0 0 64 64" fill="none" xmlns="http://www.w3.org/2000/svg">
  <!-- VPN - Secure Tunnel -->
  <!-- Left device -->
  <rect x="4" y="24" width="16" height="16" rx="2" fill="#2dd4bf"/>
  <circle cx="12" cy="32" r="3" fill="#5eead4"/>

  <!-- Right device -->
  <rect x="44" y="24" width="16" height="16" rx="2" fill="#2dd4bf"/>
  <circle cx="52" cy="32" r="3" fill="#5eead4"/>

  <!-- Tunnel -->
  <path d="M 20 28 Q 32 20 44 28" stroke="#14b8a6" stroke-width="3" fill="none"/>
  <path d="M 20 36 Q 32 44 44 36" stroke="#14b8a6" stroke-width="3" fill="none"/>

  <!-- Encrypted data packets -->
  <rect x="28" y="26" width="4" height="4" fill="#5eead4" opacity="0.8"/>
  <rect x="35" y="28" width="4" height="4" fill="#5eead4" opacity="0.6"/>
  <rect x="28" y="34" width="4" height="4" fill="#5eead4" opacity="0.6"/>
  <rect x="35" y="32" width="4" height="4" fill="#5eead4" opacity="0.8"/>

  <!-- Lock symbol on tunnel -->
  <circle cx="32" cy="32" r="6" fill="#14b8a6"/>
  <rect x="30" y="32" width="4" height="4" rx="0.5" fill="#ffffff"/>
  <path d="M 31 32 L 31 30 Q 31 29 32 29 Q 33 29 33 30 L 33 32" stroke="#ffffff" stroke-width="1.5" fill="none"/>
</svg>
